<svg width="8" height="8" viewBox="0 0 8 8" fill="none" xmlns="http://www.w3.org/2000/svg">
<g clip-path="url(#clip0)">
<path fill-rule="evenodd" clip-rule="evenodd" d="M4.00037 0C2.91403 0 2.7777 0.00475005 2.35103 0.0241669C1.92519 0.0436671 1.63451 0.111085 1.38018 0.210002C1.11709 0.31217 0.893925 0.448838 0.67159 0.671255C0.449088 0.893595 0.31242 1.11676 0.209919 1.37977C0.110751 1.63419 0.0432504 1.92494 0.0240836 2.35061C0.00500005 2.77728 0 2.9137 0 4.00004C0 5.0864 0.00483338 5.2223 0.0241669 5.64895C0.0437505 6.0748 0.111168 6.3655 0.210002 6.6198C0.312253 6.8829 0.448921 7.10605 0.67134 7.3284C0.893595 7.5509 1.11676 7.6879 1.37968 7.7901C1.63419 7.889 1.92493 7.9564 2.35069 7.9759C2.77736 7.99535 2.91362 8.0001 3.99988 8.0001C5.0863 8.0001 5.2222 7.99535 5.6489 7.9759C6.07475 7.9564 6.36575 7.889 6.62025 7.7901C6.88325 7.6879 7.10605 7.5509 7.32835 7.3284C7.55085 7.10605 7.6875 6.8829 7.79 6.6199C7.88835 6.3655 7.95585 6.07475 7.97585 5.64905C7.995 5.2224 8 5.0864 8 4.00004C8 2.9137 7.995 2.77736 7.97585 2.35069C7.95585 1.92485 7.88835 1.63419 7.79 1.37985C7.6875 1.11676 7.55085 0.893595 7.32835 0.671255C7.1058 0.448754 6.8833 0.312087 6.62 0.210002C6.365 0.111085 6.07415 0.0436671 5.6483 0.0241669C5.22165 0.00475005 5.0858 0 3.99913 0L4.00037 0ZM3.86713 0.720605H3.8672L4.00051 0.720645C5.06855 0.720645 5.1951 0.724475 5.61685 0.743645C6.00685 0.76148 6.21855 0.826645 6.35955 0.881395C6.5462 0.953895 6.6793 1.04056 6.8192 1.18056C6.9592 1.32057 7.0459 1.4539 7.11855 1.64057C7.1733 1.78141 7.23855 1.99308 7.2563 2.38308C7.27545 2.80475 7.27965 2.93141 7.27965 3.99893C7.27965 5.06645 7.27545 5.1931 7.2563 5.6148C7.23845 6.0048 7.1733 6.21645 7.11855 6.3573C7.04605 6.54395 6.9592 6.67685 6.8192 6.8168C6.6792 6.9568 6.5463 7.04345 6.35955 7.11595C6.2187 7.17095 6.00685 7.23595 5.61685 7.2538C5.1952 7.27295 5.06855 7.27715 4.00051 7.27715C2.93242 7.27715 2.80584 7.27295 2.38417 7.2538C1.99417 7.2358 1.78249 7.17065 1.64141 7.1159C1.45474 7.0434 1.3214 6.9567 1.1814 6.8167C1.0414 6.6767 0.954735 6.5437 0.88207 6.35695C0.827315 6.2161 0.762065 6.00445 0.744315 5.61445C0.72515 5.19275 0.721315 5.0661 0.721315 3.99793C0.721315 2.92975 0.72515 2.80375 0.744315 2.38208C0.76215 1.99208 0.827315 1.78041 0.88207 1.63941C0.95457 1.45274 1.0414 1.3194 1.1814 1.1794C1.3214 1.03939 1.45474 0.95273 1.64141 0.88006C1.78241 0.82506 1.99417 0.76006 2.38417 0.742145C2.75317 0.725475 2.89617 0.720475 3.64168 0.719645V0.720645C3.71134 0.720535 3.78627 0.72057 3.86713 0.720605V0.720605ZM5.6557 1.86488C5.6557 1.59979 5.8707 1.38504 6.1357 1.38504V1.38488C6.4007 1.38488 6.6157 1.59987 6.6157 1.86488C6.6157 2.12988 6.4007 2.34488 6.1357 2.34488C5.8707 2.34488 5.6557 2.12988 5.6557 1.86488ZM4.00042 1.9458C2.86603 1.94585 1.94632 2.86559 1.94632 3.99999C1.94632 5.1344 2.86607 6.05375 4.0005 6.05375C5.13495 6.05375 6.05435 5.1344 6.05435 3.99999C6.05435 2.86556 5.13485 1.9458 4.00042 1.9458V1.9458ZM5.33385 4.00015C5.33385 3.26373 4.73683 2.66681 4.00049 2.66681C3.26407 2.66681 2.66715 3.26373 2.66715 4.00015C2.66715 4.73649 3.26407 5.3335 4.00049 5.3335C4.73683 5.3335 5.33385 4.73649 5.33385 4.00015Z" fill="white"/>
</g>
<defs>
<clipPath id="clip0">
<rect width="8" height="8" fill="white"/>
</clipPath>
</defs>
</svg>
