<svg width="16" height="16" viewBox="0 0 16 16" fill="none" xmlns="http://www.w3.org/2000/svg">
<path fill-rule="evenodd" clip-rule="evenodd" d="M6.5052 6.30061V5.67654C6.2886 5.64587 6.0702 5.62994 5.85143 5.62891C3.17635 5.62891 1 7.80564 1 10.4807C1 12.1217 1.82012 13.5743 3.07118 14.4527C2.23349 13.5568 1.76777 12.376 1.76845 11.1495C1.76845 8.51251 3.88287 6.36217 6.5052 6.30061Z" fill="#BEBEBE"/>
<path fill-rule="evenodd" clip-rule="evenodd" d="M6.61921 13.3645C7.81274 13.3645 8.78641 12.415 8.83074 11.2317L8.83478 0.668773H10.7645C10.7233 0.448227 10.7025 0.224362 10.7022 0H8.06671L8.06231 10.5633C8.01834 11.7462 7.04431 12.6953 5.85114 12.6953C5.49291 12.6955 5.14008 12.6082 4.82324 12.441C5.02781 12.7264 5.29741 12.9591 5.60971 13.1196C5.92201 13.2802 6.26804 13.3641 6.61921 13.3645ZM14.3696 4.25415V3.66708C13.6604 3.66775 12.9664 3.46145 12.3728 3.07344C12.8932 3.67271 13.594 4.08698 14.3699 4.25415" fill="#BEBEBE"/>
<path fill-rule="evenodd" clip-rule="evenodd" d="M12.3727 3.07385C11.791 2.40817 11.4705 1.554 11.4709 0.669922H10.7648C10.8562 1.15857 11.0458 1.62357 11.3222 2.03678C11.5986 2.44999 11.956 2.8028 12.3727 3.07385ZM5.85155 8.2651C5.26415 8.2658 4.70102 8.49943 4.28565 8.9148C3.87032 9.33013 3.63669 9.89327 3.63599 10.4807C3.63639 10.8847 3.74719 11.281 3.95645 11.6267C4.16572 11.9723 4.46545 12.2542 4.82329 12.4419C4.55082 12.0662 4.40412 11.6139 4.40409 11.1498C4.40465 10.5624 4.63825 9.99913 5.05362 9.5837C5.46899 9.16827 6.03219 8.93457 6.61965 8.9339C6.84795 8.9339 7.06672 8.97163 7.27339 9.0365V6.34563C7.05682 6.31497 6.83839 6.29903 6.61965 6.298C6.58115 6.298 6.54342 6.3002 6.50532 6.30093V8.36773C6.29389 8.30043 6.07342 8.26583 5.85155 8.2651Z" fill="#272727"/>
<path fill-rule="evenodd" clip-rule="evenodd" d="M14.3701 4.25427V6.30274C13.0032 6.30274 11.7371 5.86557 10.703 5.12351V10.4799C10.703 13.155 8.52703 15.3314 5.85193 15.3314C4.81817 15.3314 3.85953 15.0052 3.07166 14.4519C3.52463 14.9404 4.0736 15.33 4.6842 15.5965C5.2948 15.8629 5.95383 16.0003 6.62 16.0001C9.2951 16.0001 11.4715 13.8238 11.4715 11.1491V5.79264C12.5398 6.56084 13.8227 6.97341 15.1385 6.97187V4.33564C14.8747 4.33564 14.6182 4.30704 14.3701 4.25391" fill="#272727"/>
<path fill-rule="evenodd" clip-rule="evenodd" d="M10.7025 10.4805V5.12415C11.7708 5.89242 13.0537 6.30498 14.3696 6.30338V4.25491C13.5938 4.08758 12.8931 3.67318 12.3728 3.07385C11.9561 2.8028 11.5987 2.44999 11.3223 2.03678C11.0459 1.62357 10.8562 1.15857 10.7648 0.669922H8.83508L8.83105 11.2329C8.78671 12.4158 7.81305 13.3653 6.61951 13.3653C6.26835 13.3649 5.92231 13.2809 5.61001 13.1204C5.29775 12.9598 5.02815 12.7272 4.82355 12.4418C4.46565 12.2542 4.16581 11.9723 3.95648 11.6266C3.74715 11.281 3.63628 10.8847 3.63588 10.4805C3.63655 9.89315 3.87018 9.33001 4.28555 8.91468C4.70088 8.49931 5.26405 8.26568 5.85145 8.26498C6.07938 8.26498 6.29815 8.30238 6.50518 8.36761V6.30081C3.88285 6.36238 1.76843 8.51271 1.76843 11.1497C1.76843 12.4249 2.26388 13.5859 3.07117 14.4529C3.88501 15.0258 4.85618 15.3329 5.85145 15.332C8.52655 15.332 10.7025 13.1556 10.7025 10.4805Z" fill="#272727"/>
</svg>
