<svg width="48" height="48" viewBox="0 0 48 48" fill="none" xmlns="http://www.w3.org/2000/svg">
<circle opacity="0.15" cx="24" cy="24" r="23.5" stroke="white"/>
<path d="M24.3536 16.6464C24.1583 16.4512 23.8417 16.4512 23.6464 16.6464L20.4645 19.8284C20.2692 20.0237 20.2692 20.3403 20.4645 20.5355C20.6597 20.7308 20.9763 20.7308 21.1716 20.5355L24 17.7071L26.8284 20.5355C27.0237 20.7308 27.3403 20.7308 27.5355 20.5355C27.7308 20.3403 27.7308 20.0237 27.5355 19.8284L24.3536 16.6464ZM24.5 30L24.5 17L23.5 17L23.5 30L24.5 30Z" fill="white"/>
<circle opacity="0.15" cx="24" cy="24" r="23.5" stroke="white"/>
<path d="M24.3536 16.6464C24.1583 16.4512 23.8417 16.4512 23.6464 16.6464L20.4645 19.8284C20.2692 20.0237 20.2692 20.3403 20.4645 20.5355C20.6597 20.7308 20.9763 20.7308 21.1716 20.5355L24 17.7071L26.8284 20.5355C27.0237 20.7308 27.3403 20.7308 27.5355 20.5355C27.7308 20.3403 27.7308 20.0237 27.5355 19.8284L24.3536 16.6464ZM24.5 30L24.5 17L23.5 17L23.5 30L24.5 30Z" fill="white"/>
</svg>
