<svg width="17" height="18" viewBox="0 0 17 18" fill="none" xmlns="http://www.w3.org/2000/svg">
<path d="M11.89 17.7133C10.7229 17.5398 9.61353 17.082 8.65499 16.3782C7.54417 15.5856 6.52377 14.6676 5.61298 13.6417C4.49422 12.4169 3.35496 11.2078 2.36771 9.85702C1.59056 8.77219 0.895387 7.63487 0.516204 6.32783C0.252521 5.49682 0.183476 4.61391 0.314656 3.75049C0.485459 2.71991 1.01837 1.88179 1.7477 1.18016C2.0485 0.904583 2.37519 0.660181 2.72298 0.450524C2.93004 0.315778 3.17109 0.246124 3.41636 0.250166C3.66162 0.254209 3.90036 0.331771 4.10308 0.47327C5.07418 1.06526 5.8185 1.97962 6.2125 3.0646C6.28005 3.21746 6.30633 3.38608 6.28861 3.55288C6.27088 3.71969 6.2098 3.87857 6.11172 4.01295C5.86748 4.35065 5.61298 4.6796 5.36702 5.01729C5.1501 5.31649 4.92464 5.61045 4.73163 5.9254C4.63228 6.06889 4.57963 6.24082 4.58116 6.41673C4.58269 6.59265 4.63834 6.76359 4.74017 6.90524C5.22696 7.60513 5.69838 8.32601 6.22787 8.99265C7.18592 10.2076 8.24674 11.3335 9.39798 12.3574C9.65419 12.5831 9.92918 12.7825 10.2025 12.9873C10.3189 13.08 10.4588 13.1365 10.6056 13.1501C10.7525 13.1638 10.9001 13.134 11.0309 13.0643C11.3237 12.9164 11.6088 12.7529 11.8849 12.5743C12.2675 12.3241 12.6432 12.0669 13.019 11.8202C13.1739 11.7187 13.3532 11.6629 13.5371 11.6592C13.7209 11.6555 13.9022 11.704 14.0609 11.7992C15.03 12.2918 15.82 13.0888 16.3155 14.0738C16.4548 14.3198 16.5177 14.6035 16.4957 14.887C16.4737 15.1705 16.368 15.4404 16.1925 15.6608C15.248 16.9311 14.0404 17.715 12.4349 17.75C12.2528 17.7473 12.0709 17.735 11.89 17.7133Z" fill="#ffffff"/>
</svg>
