<svg width="16" height="16" viewBox="0 0 16 16" fill="none" xmlns="http://www.w3.org/2000/svg">
<path fill-rule="evenodd" clip-rule="evenodd" d="M8.00075 0C5.82806 0 5.55539 0.0095001 4.70205 0.0483338C3.85037 0.0873342 3.26903 0.222169 2.76036 0.420004C2.23419 0.62434 1.78785 0.897676 1.34318 1.34251C0.898176 1.78719 0.62484 2.23352 0.419838 2.75953C0.221502 3.26837 0.0865009 3.84987 0.0481672 4.70122C0.0100001 5.55456 0 5.82739 0 8.00008C0 10.1728 0.00966675 10.4446 0.0483338 11.2979C0.0875009 12.1496 0.222336 12.731 0.420004 13.2396C0.624506 13.7658 0.897843 14.2121 1.34268 14.6568C1.78719 15.1018 2.23352 15.3758 2.75936 15.5802C3.26837 15.778 3.84987 15.9128 4.70138 15.9518C5.55472 15.9907 5.82723 16.0002 7.99975 16.0002C10.1726 16.0002 10.4444 15.9907 11.2978 15.9518C12.1495 15.9128 12.7315 15.778 13.2405 15.5802C13.7665 15.3758 14.2121 15.1018 14.6567 14.6568C15.1017 14.2121 15.375 13.7658 15.58 13.2398C15.7767 12.731 15.9117 12.1495 15.9517 11.2981C15.99 10.4448 16 10.1728 16 8.00008C16 5.82739 15.99 5.55472 15.9517 4.70138C15.9117 3.84971 15.7767 3.26837 15.58 2.7597C15.375 2.23352 15.1017 1.78719 14.6567 1.34251C14.2116 0.897509 13.7666 0.624173 13.24 0.420004C12.73 0.222169 12.1483 0.0873342 11.2966 0.0483338C10.4433 0.0095001 10.1716 0 7.99825 0H8.00075ZM7.73426 1.44121H7.7344L8.00103 1.44129C10.1371 1.44129 10.3902 1.44895 11.2337 1.48729C12.0137 1.52296 12.4371 1.65329 12.7191 1.76279C13.0924 1.90779 13.3586 2.08113 13.6384 2.36113C13.9184 2.64113 14.0918 2.9078 14.2371 3.28114C14.3466 3.56281 14.4771 3.98615 14.5126 4.76616C14.5509 5.6095 14.5593 5.86283 14.5593 7.99786C14.5593 10.1329 14.5509 10.3862 14.5126 11.2296C14.4769 12.0096 14.3466 12.4329 14.2371 12.7146C14.0921 13.0879 13.9184 13.3537 13.6384 13.6336C13.3584 13.9136 13.0926 14.0869 12.7191 14.2319C12.4374 14.3419 12.0137 14.4719 11.2337 14.5076C10.3904 14.5459 10.1371 14.5543 8.00103 14.5543C5.86484 14.5543 5.61168 14.5459 4.76833 14.5076C3.98833 14.4716 3.56499 14.3413 3.28282 14.2318C2.90948 14.0868 2.64281 13.9134 2.36281 13.6334C2.08281 13.3534 1.90947 13.0874 1.76414 12.7139C1.65463 12.4322 1.52413 12.0089 1.48863 11.2289C1.4503 10.3855 1.44263 10.1322 1.44263 7.99586C1.44263 5.8595 1.4503 5.6075 1.48863 4.76416C1.5243 3.98415 1.65463 3.56081 1.76414 3.27881C1.90914 2.90547 2.08281 2.6388 2.36281 2.3588C2.64281 2.07879 2.90948 1.90546 3.28282 1.76012C3.56482 1.65012 3.98833 1.52012 4.76833 1.48429C5.50634 1.45095 5.79234 1.44095 7.28336 1.43929V1.44129C7.42267 1.44107 7.57254 1.44114 7.73426 1.44121ZM11.3114 3.72976C11.3114 3.19958 11.7414 2.77008 12.2714 2.77008V2.76975C12.8014 2.76975 13.2314 3.19975 13.2314 3.72976C13.2314 4.25976 12.8014 4.68976 12.2714 4.68976C11.7414 4.68976 11.3114 4.25976 11.3114 3.72976ZM8.00084 3.89161C5.73206 3.8917 3.89263 5.73118 3.89263 7.99999C3.89263 10.2688 5.73215 12.1075 8.00101 12.1075C10.2699 12.1075 12.1087 10.2688 12.1087 7.99999C12.1087 5.73113 10.2697 3.89161 8.00084 3.89161ZM10.6677 8.00031C10.6677 6.52746 9.47367 5.33362 8.00099 5.33362C6.52814 5.33362 5.3343 6.52746 5.3343 8.00031C5.3343 9.47299 6.52814 10.667 8.00099 10.667C9.47367 10.667 10.6677 9.47299 10.6677 8.00031Z" fill="#272727"/>
</svg>
