<svg width="16" height="16" viewBox="0 0 16 16" fill="none" xmlns="http://www.w3.org/2000/svg">
<path fill-rule="evenodd" clip-rule="evenodd" d="M9.05621 1.89094C8.82805 1.66086 8.47797 1.5 8 1.5C7.52202 1.5 7.17195 1.66086 6.94379 1.89094C6.72102 2.11559 6.5 2.52237 6.5 3.23077C6.5 4.82147 7.47284 5.5 8 5.5C8.52716 5.5 9.5 4.82147 9.5 3.23077C9.5 2.52237 9.27898 2.11559 9.05621 1.89094ZM11 3.23077C11 1.14908 9.65685 2.7328e-07 8 3.45703e-07C6.34315 4.18126e-07 5 1.14908 5 3.23077C5 5.31246 6.34315 7 8 7C9.65685 7 11 5.31246 11 3.23077Z" fill="white"/>
<path fill-rule="evenodd" clip-rule="evenodd" d="M6 9.5C4.61929 9.5 3.5 10.6193 3.5 12V14C3.5 14.2761 3.72386 14.5 4 14.5H12C12.2761 14.5 12.5 14.2761 12.5 14V12C12.5 10.6193 11.3807 9.5 10 9.5H6ZM2 12C2 9.79086 3.79086 8 6 8H10C12.2091 8 14 9.79086 14 12V14C14 15.1046 13.1046 16 12 16H4C2.89543 16 2 15.1046 2 14V12Z" fill="white"/>
</svg>
