<svg width="13" height="13" viewBox="0 0 13 13" fill="none" xmlns="http://www.w3.org/2000/svg">
<path fill-rule="evenodd" clip-rule="evenodd" d="M5.45362 5.30808V4.87123C5.302 4.84977 5.14912 4.83861 4.99598 4.83789C3.12342 4.83789 1.59998 6.3616 1.59998 8.23417C1.59998 9.38285 2.17406 10.3997 3.0498 11.0146C2.46342 10.3874 2.13742 9.56084 2.13789 8.70231C2.13789 6.85641 3.61798 5.35118 5.45362 5.30808Z" fill="white"/>
<path fill-rule="evenodd" clip-rule="evenodd" d="M5.53318 10.2536C6.36865 10.2536 7.05022 9.58894 7.08125 8.76065L7.08408 1.36658H8.43489C8.40605 1.2122 8.39147 1.05549 8.39128 0.898438H6.54643L6.54335 8.29277C6.51257 9.1208 5.83075 9.78517 4.99553 9.78517C4.74477 9.78526 4.49778 9.72418 4.276 9.60716C4.4192 9.80694 4.60792 9.96978 4.82653 10.0822C5.04514 10.1946 5.28736 10.2533 5.53318 10.2536ZM10.9586 3.87634V3.4654C10.4622 3.46586 9.97639 3.32145 9.56085 3.04985C9.92518 3.46934 10.4157 3.75933 10.9589 3.87634" fill="white"/>
<path fill-rule="evenodd" clip-rule="evenodd" d="M9.56093 3.04993C9.15369 2.58396 8.92939 1.98604 8.92965 1.36719H8.43535C8.49936 1.70924 8.6321 2.03474 8.82558 2.32399C9.01906 2.61323 9.26922 2.8602 9.56093 3.04993ZM4.99621 6.68388C4.58503 6.68437 4.19084 6.84791 3.90008 7.13867C3.60935 7.4294 3.4458 7.82359 3.44531 8.23477C3.44559 8.51762 3.52315 8.79503 3.66964 9.037C3.81613 9.27894 4.02594 9.47627 4.27642 9.60766C4.0857 9.34465 3.98301 9.02806 3.98298 8.70319C3.98338 8.29196 4.1469 7.8977 4.43766 7.6069C4.72841 7.31609 5.12265 7.1525 5.53388 7.15204C5.69369 7.15204 5.84683 7.17845 5.99149 7.22386V5.34025C5.8399 5.31878 5.68699 5.30763 5.53388 5.30691C5.50693 5.30691 5.48052 5.30845 5.45385 5.30896V6.75572C5.30584 6.70861 5.15152 6.68439 4.99621 6.68388Z" fill="#272727"/>
<path fill-rule="evenodd" clip-rule="evenodd" d="M10.9593 3.87721V5.31114C10.0025 5.31114 9.11625 5.00512 8.39236 4.48567V8.23518C8.39236 10.1077 6.86918 11.6312 4.99661 11.6312C4.27297 11.6312 3.60193 11.4029 3.05042 11.0156C3.3675 11.3575 3.75178 11.6302 4.1792 11.8168C4.60662 12.0032 5.06794 12.0994 5.53426 12.0993C7.40683 12.0993 8.93028 10.5759 8.93028 8.70357V4.95407C9.67809 5.49181 10.5761 5.7806 11.4972 5.77953V3.93417C11.3125 3.93417 11.133 3.91415 10.9593 3.87695" fill="#DDDDDD"/>
<path fill-rule="evenodd" clip-rule="evenodd" d="M8.39155 8.23463V4.48515C9.13934 5.02293 10.0374 5.31173 10.9585 5.31061V3.87668C10.4154 3.75955 9.92497 3.46947 9.56076 3.04993C9.26905 2.8602 9.01887 2.61323 8.82539 2.32399C8.63193 2.03474 8.49917 1.70924 8.43516 1.36719H7.08435L7.08152 8.76126C7.05049 9.58929 6.36893 10.2539 5.53345 10.2539C5.28763 10.2537 5.04541 10.1949 4.8268 10.0825C4.60821 9.97011 4.41949 9.80729 4.27627 9.60751C4.02574 9.47617 3.81586 9.27886 3.66933 9.0369C3.52279 8.79493 3.44519 8.51752 3.44491 8.23463C3.44537 7.82345 3.60892 7.42925 3.89967 7.13852C4.19041 6.84776 4.58462 6.68422 4.9958 6.68373C5.15536 6.68373 5.3085 6.70991 5.45342 6.75557V5.30881C3.61778 5.35191 2.1377 6.85714 2.1377 8.70304C2.1377 9.59571 2.48451 10.4084 3.04961 11.0153C3.6193 11.4163 4.29912 11.6313 4.9958 11.6307C6.86837 11.6307 8.39155 10.1072 8.39155 8.23463Z" fill="white"/>
</svg>
