<svg width="130" height="130" viewBox="0 0 130 130" fill="none" xmlns="http://www.w3.org/2000/svg">
<g filter="url(#filter0_d)">
<path d="M40 50C40 63.8071 51.1929 75 65 75C78.8071 75 90 63.8071 90 50C90 36.1929 78.8071 25 65 25C51.1929 25 40 36.1929 40 50Z" fill="white"/>
</g>
<path d="M58.7586 50.1911C59.3103 50.0528 59.8391 50.0759 60.3448 50.2602C60.8506 50.3984 61.2874 50.6518 61.6552 51.0203C62.069 51.3889 62.3908 51.8266 62.6207 52.3333C62.8966 52.8401 63.0345 53.393 63.0345 53.9919C63.0345 55.1436 62.6207 56.1111 61.7931 56.8943C60.9655 57.6314 59.954 58 58.7586 58C57.1494 58 55.954 57.4241 55.1724 56.2724C54.3908 55.0745 54 53.5542 54 51.7114C54 49.2236 54.5747 47.0583 55.7241 45.2154C56.9195 43.3266 58.7586 41.9214 61.2414 41L62.2069 42.313C60.4138 43.1423 59.0805 44.1789 58.2069 45.4228C57.3333 46.6667 56.8966 48.0488 56.8966 49.5691C56.8966 50.0759 56.9885 50.3753 57.1724 50.4675C57.4023 50.5596 57.6552 50.5596 57.931 50.4675L58.7586 50.1911ZM69.7931 50.1911C70.8506 49.9607 71.8161 50.2371 72.6897 51.0203C73.5632 51.8035 74 52.794 74 53.9919C74 55.1436 73.5862 56.1111 72.7586 56.8943C71.977 57.6314 70.9885 58 69.7931 58C68.1839 58 66.9655 57.4241 66.1379 56.2724C65.3563 55.0745 64.9655 53.5542 64.9655 51.7114C64.9655 49.2236 65.5632 47.0583 66.7586 45.2154C67.954 43.3266 69.7931 41.9214 72.2759 41L73.2414 42.313C71.4483 43.1423 70.092 44.1789 69.1724 45.4228C68.2989 46.6667 67.8621 48.0488 67.8621 49.5691C67.8621 50.0759 67.954 50.3753 68.1379 50.4675C68.3678 50.5596 68.6437 50.5596 68.9655 50.4675L69.7931 50.1911Z" fill="#EBEBEB"/>
<defs>
<filter id="filter0_d" x="0" y="0" width="130" height="130" filterUnits="userSpaceOnUse" color-interpolation-filters="sRGB">
<feFlood flood-opacity="0" result="BackgroundImageFix"/>
<feColorMatrix in="SourceAlpha" type="matrix" values="0 0 0 0 0 0 0 0 0 0 0 0 0 0 0 0 0 0 127 0"/>
<feOffset dy="15"/>
<feGaussianBlur stdDeviation="20"/>
<feColorMatrix type="matrix" values="0 0 0 0 0 0 0 0 0 0 0 0 0 0 0 0 0 0 0.04 0"/>
<feBlend mode="normal" in2="BackgroundImageFix" result="effect1_dropShadow"/>
<feBlend mode="normal" in="SourceGraphic" in2="effect1_dropShadow" result="shape"/>
</filter>
</defs>
</svg>
