<svg fill="none" height="16" viewBox="0 0 16 16" width="16" xmlns="http://www.w3.org/2000/svg"><path clip-rule="evenodd" d="m8.00075 0c-2.17269 0-2.44536.0095001-3.2987.0483338-.85168.0390004-1.43302.1738352-1.94169.3716702-.52617.204336-.97251.477672-1.41718.922506-.445004.44468-.71834.89101-.923342 1.41702-.198336.50884-.3333371 1.09034-.3716708 1.94169-.0381671.85334-.0481672 1.12617-.0481672 3.29886 0 2.17272.00966675 2.44452.0483338 3.29782.0391671.8517.1740022 1.4331.3716702 1.9417.204502.5262.477839.9725.922676 1.4172.44451.445.89084.719 1.41668.9234.50901.1978 1.09051.3326 1.94202.3716.85334.0389 1.12585.0484 3.29837.0484 2.17285 0 2.44465-.0095 3.29805-.0484.8517-.039 1.4337-.1738 1.9427-.3716.526-.2044.9716-.4784 1.4162-.9234.445-.4447.7183-.891.9233-1.417.1967-.5088.3317-1.0903.3717-1.9417.0383-.8533.0483-1.1253.0483-3.29802 0-2.17269-.01-2.44536-.0483-3.2987-.04-.85167-.175-1.43301-.3717-1.94168-.205-.52618-.4783-.97251-.9233-1.41719-.4451-.445001-.8901-.718337-1.4167-.922506-.51-.197835-1.0917-.3326698-1.9434-.3716702-.8533-.0388337-1.125-.0483338-3.29835-.0483338zm-.26649 1.44121h.00014l.26663.00008c2.13607 0 2.38917.00766 3.23267.046.78.03567 1.2034.166 1.4854.2755.3733.145.6395.31834.9193.59834.28.28.4534.54667.5987.92001.1095.28167.24.70501.2755 1.48502.0383.84334.0467 1.09667.0467 3.2317 0 2.13504-.0084 2.38834-.0467 3.23174-.0357.78-.166 1.2033-.2755 1.485-.145.3733-.3187.6391-.5987.919-.28.28-.5458.4533-.9193.5983-.2817.11-.7054.24-1.4854.2757-.8433.0383-1.0966.0467-3.23267.0467-2.13619 0-2.38935-.0084-3.2327-.0467-.78-.036-1.20334-.1663-1.48551-.2758-.37334-.145-.64001-.3184-.92001-.5984s-.45334-.546-.59867-.9195c-.10951-.2817-.24001-.705-.27551-1.485-.03833-.8434-.046-1.0967-.046-3.23304 0-2.13636.00767-2.38836.046-3.2317.03567-.78001.166-1.20335.27551-1.48535.145-.37334.31867-.64001.59867-.92001.28-.28001.54667-.45334.92001-.59868.282-.11.70551-.24 1.48551-.27583.73801-.03334 1.02401-.04334 2.51503-.045v.002c.13931-.00022.28918-.00015.4509-.00008zm3.57714 2.28855c0-.53018.43-.95968.96-.95968v-.00033c.53 0 .96.43.96.96001 0 .53-.43.96-.96.96s-.96-.43-.96-.96zm-3.31056.16185c-2.26878.00009-4.10821 1.83957-4.10821 4.10838s1.83952 4.10751 4.10838 4.10751c2.26889 0 4.10769-1.8387 4.10769-4.10751 0-2.26886-1.839-4.10838-4.10786-4.10838zm2.66686 4.1087c0-1.47285-1.19403-2.66669-2.66671-2.66669-1.47285 0-2.66669 1.19384-2.66669 2.66669 0 1.47268 1.19384 2.66669 2.66669 2.66669 1.47268 0 2.66671-1.19401 2.66671-2.66669z" fill="#ffffff" fill-rule="evenodd"/></svg>