<svg width="13" height="13" viewBox="0 0 13 13" fill="none" xmlns="http://www.w3.org/2000/svg">
<path fill-rule="evenodd" clip-rule="evenodd" d="M6.50055 0.898438C4.97967 0.898438 4.7888 0.905088 4.19146 0.932271C3.59529 0.959571 3.18835 1.05396 2.83228 1.19244C2.46396 1.33548 2.15152 1.52681 1.84025 1.8382C1.52875 2.14947 1.33741 2.4619 1.19391 2.83011C1.05508 3.18629 0.960575 3.59335 0.933741 4.18929C0.907024 4.78663 0.900024 4.97761 0.900024 6.4985C0.900024 8.01938 0.906791 8.20966 0.933858 8.807C0.961275 9.40318 1.05566 9.81011 1.19403 10.1662C1.33718 10.5345 1.52851 10.8469 1.8399 11.1582C2.15105 11.4697 2.46349 11.6615 2.83158 11.8046C3.18788 11.943 3.59494 12.0374 4.19099 12.0647C4.78833 12.0919 4.97908 12.0986 6.49985 12.0986C8.02085 12.0986 8.21113 12.0919 8.80847 12.0647C9.40465 12.0374 9.81205 11.943 10.1684 11.8046C10.5366 11.6615 10.8485 11.4697 11.1597 11.1582C11.4712 10.8469 11.6625 10.5345 11.806 10.1663C11.9437 9.81011 12.0382 9.40306 12.0662 8.80712C12.093 8.20978 12.1 8.01938 12.1 6.4985C12.1 4.97761 12.093 4.78674 12.0662 4.1894C12.0382 3.59323 11.9437 3.18629 11.806 2.83022C11.6625 2.4619 11.4712 2.14947 11.1597 1.8382C10.8482 1.52669 10.5367 1.33536 10.168 1.19244C9.811 1.05396 9.40383 0.959571 8.80766 0.932271C8.21032 0.905088 8.02015 0.898438 6.4988 0.898438H6.50055ZM5.99838 1.90706C6.09593 1.90691 6.20086 1.90696 6.3141 1.90701L6.50075 1.90706C7.99597 1.90706 8.17318 1.91243 8.76364 1.93926C9.30965 1.96423 9.60598 2.05547 9.80339 2.13212C10.0647 2.23362 10.251 2.35495 10.4469 2.55095C10.6429 2.74696 10.7643 2.93362 10.866 3.19496C10.9426 3.39213 11.034 3.68847 11.0588 4.23447C11.0857 4.82481 11.0915 5.00215 11.0915 6.49666C11.0915 7.99118 11.0857 8.16851 11.0588 8.75885C11.0339 9.30486 10.9426 9.60119 10.866 9.79836C10.7645 10.0597 10.6429 10.2458 10.4469 10.4417C10.2509 10.6377 10.0648 10.759 9.80339 10.8605C9.60622 10.9375 9.30965 11.0285 8.76364 11.0535C8.1733 11.0803 7.99597 11.0861 6.50075 11.0861C5.00542 11.0861 4.8282 11.0803 4.23786 11.0535C3.69185 11.0283 3.39552 10.937 3.198 10.8604C2.93666 10.7589 2.74999 10.6376 2.55399 10.4416C2.35799 10.2456 2.23666 10.0593 2.13492 9.7979C2.05827 9.60073 1.96692 9.30439 1.94207 8.75839C1.91524 8.16805 1.90987 7.99071 1.90987 6.49526C1.90987 4.99981 1.91524 4.82341 1.94207 4.23307C1.96704 3.68707 2.05827 3.39073 2.13492 3.19333C2.23642 2.93199 2.35799 2.74532 2.55399 2.54932C2.74999 2.35332 2.93666 2.23198 3.198 2.13025C3.3954 2.05325 3.69185 1.96225 4.23786 1.93716C4.75447 1.91383 4.95467 1.90683 5.99838 1.90566V1.90706ZM8.81799 3.50873C8.81799 3.13761 9.11899 2.83695 9.49 2.83695V2.83672C9.861 2.83672 10.162 3.13772 10.162 3.50873C10.162 3.87973 9.861 4.18073 9.49 4.18073C9.11899 4.18073 8.81799 3.87973 8.81799 3.50873ZM6.50062 3.62109C4.91248 3.62116 3.62488 4.9088 3.62488 6.49696C3.62488 8.08516 4.91254 9.37224 6.50074 9.37224C8.08894 9.37224 9.37614 8.08516 9.37614 6.49696C9.37614 4.90876 8.08882 3.62109 6.50062 3.62109ZM8.36741 6.49852C8.36741 5.46753 7.5316 4.63184 6.50072 4.63184C5.46973 4.63184 4.63403 5.46753 4.63403 6.49852C4.63403 7.5294 5.46973 8.36521 6.50072 8.36521C7.5316 8.36521 8.36741 7.5294 8.36741 6.49852Z" fill="white"/>
</svg>
