<svg fill="none" height="16" viewBox="0 0 16 16" width="16" xmlns="http://www.w3.org/2000/svg"><g clip-rule="evenodd" fill-rule="evenodd"><path d="m6.5052 6.30061v-.62407c-.2166-.03067-.435-.0466-.65377-.04763-2.67508 0-4.85143 2.17673-4.85143 4.85179 0 1.641.82012 3.0936 2.07118 3.972-.83769-.8959-1.30341-2.0767-1.30273-3.3032 0-2.63699 2.11442-4.78733 4.73675-4.84889z" fill="#bebebe"/><path d="m6.61921 13.3645c1.19353 0 2.1672-.9495 2.21153-2.1328l.00404-10.562927h1.92972c-.0412-.220546-.062-.444411-.0623-.668773h-2.63549l-.0044 10.5633c-.04397 1.1829-1.018 2.132-2.21117 2.132-.35823.0002-.71106-.0871-1.0279-.2543.20457.2854.47417.5181.78647.6786.3123.1606.65833.2445 1.0095.2449zm7.75039-9.11035v-.58707c-.7092.00067-1.4032-.20563-1.9968-.59364.5204.59927 1.2212 1.01354 1.9971 1.18071" fill="#bebebe"/><g fill="#ffffff"><path d="m12.3727 3.07385c-.5817-.66568-.9022-1.51985-.9018-2.403928h-.7061c.0914.488648.281.953648.5574 1.366858s.6338.76602 1.0505 1.03707zm-6.52115 5.19125c-.5874.0007-1.15053.23433-1.5659.6497-.41533.41533-.64896.97847-.64966 1.5659.0004.404.1112.8003.32046 1.146.20927.3456.509.6275.86684.8152-.27247-.3757-.41917-.828-.4192-1.2921.00056-.5874.23416-1.15067.64953-1.5661s.97857-.64913 1.56603-.6498c.2283 0 .44707.03773.65374.1026v-2.69087c-.21657-.03066-.435-.0466-.65374-.04763-.0385 0-.07623.0022-.11433.00293v2.0668c-.21143-.0673-.4319-.1019-.65377-.10263z"/><path d="m14.3701 4.25427v2.04847c-1.3669 0-2.633-.43717-3.6671-1.17923v5.35639c0 2.6751-2.17597 4.8515-4.85107 4.8515-1.03376 0-1.9924-.3262-2.78027-.8795.45297.4885 1.00194.8781 1.61254 1.1446.6106.2664 1.26963.4038 1.9358.4036 2.6751 0 4.8515-2.1763 4.8515-4.851v-5.35646c1.0683.7682 2.3512 1.18077 3.667 1.17923v-2.63623c-.2638 0-.5203-.0286-.7684-.08173"/><path d="m10.7025 10.4805v-5.35635c1.0683.76827 2.3512 1.18083 3.6671 1.17923v-2.04847c-.7758-.16733-1.4765-.58173-1.9968-1.18106-.4167-.27105-.7741-.62386-1.0505-1.03707s-.4661-.87821-.5575-1.366858h-1.92972l-.00403 10.562978c-.04434 1.1829-1.018 2.1324-2.21154 2.1324-.35116-.0004-.6972-.0844-1.0095-.2449-.31226-.1606-.58186-.3932-.78646-.6786-.3579-.1876-.65774-.4695-.86707-.8152-.20933-.3456-.3202-.7419-.3206-1.1461.00067-.58735.2343-1.15049.64967-1.56582.41533-.41537.9785-.649 1.5659-.6497.22793 0 .4467.0374.65373.10263v-2.0668c-2.62233.06157-4.73675 2.2119-4.73675 4.84889 0 1.2752.49545 2.4362 1.30274 3.3032.81384.5729 1.78501.88 2.78028.8791 2.6751 0 4.85105-2.1764 4.85105-4.8515z"/></g></g></svg>