<svg width="16" height="16" viewBox="0 0 16 16" fill="none" xmlns="http://www.w3.org/2000/svg">
<path d="M13.6036 2.41367C12.1071 0.937109 10.1143 0.125 7.99643 0.125C3.625 0.125 0.0678571 3.62656 0.0678571 7.92969C0.0678571 9.3043 0.432143 10.6473 1.125 11.832L0 15.875L4.20357 14.7887C5.36071 15.4109 6.66429 15.7379 7.99286 15.7379H7.99643C12.3643 15.7379 16 12.2363 16 7.9332C16 5.84844 15.1 3.89023 13.6036 2.41367ZM7.99643 14.423C6.81071 14.423 5.65 14.1102 4.63929 13.5195L4.4 13.3789L1.90714 14.0223L2.57143 11.6281L2.41429 11.382C1.75357 10.3484 1.40714 9.15664 1.40714 7.92969C1.40714 4.3543 4.36429 1.44336 8 1.44336C9.76071 1.44336 11.4143 2.11836 12.6571 3.34531C13.9 4.57227 14.6643 6.2 14.6607 7.9332C14.6607 11.5121 11.6286 14.423 7.99643 14.423ZM11.6107 9.56445C11.4143 9.46602 10.4393 8.99492 10.2571 8.93164C10.075 8.86484 9.94286 8.8332 9.81071 9.03008C9.67857 9.22695 9.3 9.66289 9.18214 9.79648C9.06786 9.92656 8.95 9.94414 8.75357 9.8457C7.58929 9.27266 6.825 8.82266 6.05714 7.52539C5.85357 7.18086 6.26071 7.20547 6.63929 6.46016C6.70357 6.33008 6.67143 6.21758 6.62143 6.11914C6.57143 6.0207 6.175 5.06094 6.01071 4.6707C5.85 4.29102 5.68571 4.34375 5.56429 4.33672C5.45 4.32969 5.31786 4.32969 5.18571 4.32969C5.05357 4.32969 4.83929 4.37891 4.65714 4.57227C4.475 4.76914 3.96429 5.24023 3.96429 6.2C3.96429 7.15977 4.675 8.08789 4.77143 8.21797C4.87143 8.34805 6.16786 10.3168 8.15714 11.1641C9.41429 11.6984 9.90714 11.7441 10.5357 11.6527C10.9179 11.5965 11.7071 11.1816 11.8714 10.7246C12.0357 10.2676 12.0357 9.87734 11.9857 9.79648C11.9393 9.70859 11.8071 9.65938 11.6107 9.56445Z" fill="white"/>
</svg>
