<svg width="32" height="32" viewBox="0 0 32 32" fill="none" xmlns="http://www.w3.org/2000/svg">
<path d="M32 16C32 7.16344 24.8366 0 16 0C7.16344 0 0 7.16344 0 16C0 24.8366 7.16344 32 16 32C24.8366 32 32 24.8366 32 16Z" fill="#272727"/>
<path d="M16.0011 12H16.0011C15.6855 12 15.4297 12.2558 15.4297 12.5714V19.4286C15.4297 19.7442 15.6855 20 16.0011 20C16.3167 20 16.5726 19.7442 16.5726 19.4286V12.5714C16.5726 12.2558 16.3167 12 16.0011 12Z" fill="white"/>
<path d="M19.4286 16.5726C19.7442 16.5726 20 16.3167 20 16.0011C20 15.6855 19.7442 15.4297 19.4286 15.4297H12.5714C12.2558 15.4297 12 15.6855 12 16.0011C12 16.3167 12.2558 16.5726 12.5714 16.5726H19.4286Z" fill="white"/>
</svg>
