<svg width="881" height="88" viewBox="0 0 881 88" fill="none" xmlns="http://www.w3.org/2000/svg">
<path d="M17.4825 55.5917V86.7862H0V1.27448H17.4825V40.0552L55.1144 1.27448H75.5007L39.8246 37.4455L78.4046 86.7862H57.7812L27.7942 47.52L17.4825 55.5917Z" fill="#F5F5F5"/>
<path d="M107.503 64.9379L100.095 86.7862H82.6123L113.073 1.27448H133.697L164.039 86.7862H146.735L139.327 64.9379H107.503ZM123.385 14.4441C122.99 16.0625 122.437 18.0046 121.726 20.2703C121.015 22.5361 120.501 24.1343 120.185 25.0648L111.414 51.4648H135.415L126.407 24.5186C125.854 22.8598 125.341 21.1807 124.867 19.4814C124.393 17.7821 123.899 16.103 123.385 14.4441Z" fill="#F5F5F5"/>
<path d="M237.703 72.949V86.7862H175.418V1.27448H192.9V72.949H237.703Z" fill="#F5F5F5"/>
<path d="M311.9 72.949V86.7862H249.615V1.27448H267.097V72.949H311.9Z" fill="#F5F5F5"/>
<path d="M341.294 1.27448V86.7862H323.812V1.27448H341.294Z" fill="#F5F5F5"/>
<path d="M425.684 62.1462C425.684 70.5214 422.642 76.9343 416.558 81.3848C410.513 85.7949 401.624 88 389.89 88C368.753 88 356.446 80.171 352.969 64.5131L369.859 61.6607C371.005 66.1922 373.237 69.4897 376.556 71.5531C379.874 73.5761 384.477 74.5876 390.364 74.5876C396.488 74.5876 401.071 73.6368 404.113 71.7352C407.155 69.8336 408.676 66.9811 408.676 63.1779C408.676 60.7503 407.985 58.7476 406.602 57.1697C405.219 55.5917 403.243 54.2768 400.675 53.2248C399.411 52.6988 397.554 52.1324 395.105 51.5255C392.655 50.8782 389.613 50.1701 385.978 49.4014C381.79 48.3899 378.511 47.5402 376.141 46.8524C373.77 46.1241 371.874 45.4363 370.451 44.789C369.029 44.1011 367.646 43.3526 366.303 42.5434C363.34 40.7228 361.029 38.2952 359.369 35.2607C357.71 32.2262 356.88 28.4432 356.88 23.9117C356.88 16.1839 359.705 10.2768 365.355 6.19034C371.044 2.06345 379.301 0 390.127 0C400.478 0 408.241 1.65885 413.417 4.97655C418.632 8.29425 421.99 13.7766 423.492 21.4234L406.542 23.7903C405.673 20.1085 403.895 17.337 401.209 15.4759C398.562 13.6147 394.749 12.6841 389.771 12.6841C384.477 12.6841 380.506 13.5338 377.859 15.2331C375.212 16.9324 373.889 19.4814 373.889 22.88C373.889 25.1053 374.442 26.926 375.548 28.3421C376.694 29.7582 378.373 30.972 380.585 31.9834C382.679 32.9545 387.164 34.1885 394.038 35.6855C398.028 36.5756 401.466 37.4253 404.35 38.2345C407.234 39.0032 409.545 39.7517 411.283 40.48C413.022 41.2487 414.563 42.0579 415.906 42.9076C417.289 43.7572 418.474 44.6676 419.462 45.6386C421.477 47.6211 423.018 49.988 424.084 52.7393C425.151 55.4501 425.684 58.5857 425.684 62.1462Z" fill="#F5F5F5"/>
<path d="M456.027 50.1297V86.7862H438.544V1.27448H456.027V35.3214H492.414V1.27448H509.897V86.7862H492.414V50.1297H456.027Z" fill="#F5F5F5"/>
<path d="M594.346 72.949V86.7862H526.253V1.27448H591.916V15.1117H543.736V36.5959H588.301V50.4331H543.736V72.949H594.346Z" fill="#F5F5F5"/>
<path d="M679.21 1.27448L648.512 86.7862H630.793L599.917 1.27448H618.17L635.356 56.1986C635.909 57.9788 636.541 60.2244 637.252 62.9352C638.003 65.6055 638.833 68.7411 639.741 72.3421C641.045 67.2846 641.974 63.623 642.527 61.3572C643.119 59.0915 643.613 57.372 644.008 56.1986L661.135 1.27448H679.21Z" fill="#F5F5F5"/>
<path d="M705.642 1.27448V86.7862H688.159V1.27448H705.642Z" fill="#F5F5F5"/>
<path d="M760.934 73.92C771.522 73.92 778.851 68.4984 782.92 57.6552L798.151 63.5421C794.871 71.7959 790.051 77.9457 783.691 81.9917C777.369 85.9972 769.784 88 760.934 88C752.005 88 744.399 86.2602 738.118 82.7807C731.836 79.2607 727.035 74.183 723.717 67.5476C720.437 60.9122 718.798 52.9416 718.798 43.6359C718.798 34.2492 720.378 26.3191 723.539 19.8455C726.7 13.372 731.362 8.45609 737.525 5.09793C743.688 1.69931 751.234 0 760.163 0C769.961 0 777.942 2.02299 784.105 6.06897C790.269 10.0745 794.595 15.9816 797.084 23.7903L781.676 28.0993C780.372 23.8106 777.804 20.412 773.971 17.9034C770.179 15.3545 765.694 14.08 760.519 14.08C752.617 14.08 746.612 16.5885 742.503 21.6055C738.434 26.6225 736.399 33.966 736.399 43.6359C736.399 50.1903 737.327 55.7131 739.184 60.2041C741.081 64.6952 743.846 68.114 747.481 70.4607C751.155 72.7669 755.64 73.92 760.934 73.92Z" fill="#F5F5F5"/>
<path d="M827.13 50.1297V86.7862H809.648V1.27448H827.13V35.3214H863.518V1.27448H881V86.7862H863.518V50.1297H827.13Z" fill="#F5F5F5"/>
</svg>
